<svg xmlns="http://www.w3.org/2000/svg" xmlns:xlink="http://www.w3.org/1999/xlink" width="1080" zoomAndPan="magnify" viewBox="0 0 810 809.999993" height="1080" preserveAspectRatio="xMidYMid meet" version="1.2"><g id="22edd72932"><path style=" stroke:none;fill-rule:nonzero;fill:#2b748a;fill-opacity:1;" d="M 665.554688 241.070312 L 665.554688 429.507812 C 651.511719 456.914062 565.59375 491.03125 398.742188 461.714844 C 231.832031 432.402344 166.792969 394.40625 166.792969 394.40625 L 166.792969 241.070312 C 166.792969 235.957031 169.441406 231.21875 173.8125 228.507812 L 406.441406 85.390625 C 412.417969 81.695312 419.992188 81.695312 425.964844 85.390625 L 658.59375 228.507812 C 662.90625 231.21875 665.554688 235.957031 665.554688 241.070312 Z M 665.554688 241.070312 "/><path style=" stroke:none;fill-rule:nonzero;fill:#00475c;fill-opacity:1;" d="M 788.796875 488.628906 C 779.742188 515.96875 723.695312 528.59375 665.617188 534.628906 L 665.617188 544.175781 C 665.617188 549.347656 662.90625 554.089844 658.53125 556.796875 L 425.90625 697.203125 C 419.992188 700.777344 412.539062 700.777344 406.625 697.203125 L 174 556.796875 C 170.550781 554.703125 168.148438 551.316406 167.285156 547.5 C 167.039062 546.453125 166.914062 545.34375 166.914062 544.175781 L 166.914062 499.957031 C 166.914062 499.957031 284.921875 539.800781 383.039062 541.402344 C 300.382812 522.003906 227.582031 505.253906 166.914062 479.453125 C 138.953125 467.566406 113.515625 453.773438 90.851562 436.898438 C 90.851562 436.898438 123.554688 448.722656 166.914062 461.902344 C 203.378906 472.984375 247.414062 485.054688 285.847656 491.769531 C 285.847656 491.769531 266.9375 483.085938 255.175781 479.574219 C 239.101562 474.773438 201.097656 459.992188 166.855469 445.398438 C 152.011719 439.117188 137.96875 432.835938 126.636719 427.476562 C 89.066406 409.742188 46.257812 385.972656 24.640625 360.230469 C 3.023438 334.488281 25.8125 308.5625 123.554688 308.316406 C 123.554688 308.316406 80.933594 321.925781 79.949219 342.800781 C 79.085938 361.03125 100.828125 387.878906 166.855469 417.007812 C 176.09375 421.074219 186.132812 425.199219 197.15625 429.324219 C 286.894531 463.132812 439.332031 493.738281 560.851562 498.726562 C 601.128906 500.390625 636.792969 498.359375 665.617188 493.308594 C 732.8125 481.546875 762.621094 453.09375 726.28125 415.222656 C 726.28125 415.222656 800.316406 453.710938 788.796875 488.628906 Z M 788.796875 488.628906 "/><path style="fill-rule:nonzero;fill:#ffffff;fill-opacity:1;stroke-width:0.5;stroke-linecap:butt;stroke-linejoin:miter;stroke:#000000;stroke-opacity:1;stroke-miterlimit:10;" d="M 971.697308 489.198479 L 1009.402106 427.498032 C 1016.600583 415.699654 1016.89867 400.900934 1010.099756 388.702933 L 963.801181 305.79712 C 958.79713 296.802442 949.302751 291.302875 939.098038 291.302875 L 856.597784 291.302875 C 837.602684 291.302875 820.897143 296.003197 811.098335 311.899293 C 801.198051 327.801731 789.699515 347.897034 789.699515 347.897034 L 922.500316 347.897034 L 951.700129 400.298329 C 954.002374 404.497537 954.002374 409.502333 951.497177 413.60005 L 922.696927 460.799908 L 781.099396 460.799908 C 767.698179 460.799908 756.497729 470.09906 753.599311 482.703028 C 753.402701 483.502273 753.301225 484.200026 753.199748 484.999271 C 753.098272 485.398894 753.098272 485.697025 753.098272 486.10299 C 753.003138 486.597761 753.003138 487.098875 753.003138 487.599989 C 753.003138 487.802972 753.003138 487.999612 752.901662 488.297743 C 752.901662 488.602217 752.901662 488.900348 752.901662 489.096988 C 752.901662 489.401462 752.901662 489.699593 752.901662 489.902576 C 752.901662 490.099216 752.901662 490.302198 753.003138 490.60033 C 753.003138 491.101443 753.098272 491.602557 753.098272 492.097328 C 753.098272 492.496951 753.199748 492.801425 753.199748 493.201047 C 753.301225 494.000292 753.497835 494.799537 753.599311 495.497291 C 756.497729 507.999767 767.698179 517.40041 781.099396 517.40041 L 922.696927 517.40041 L 951.497177 564.600269 C 954.002374 568.697986 954.097508 573.79793 951.700129 577.90199 L 922.500316 630.296941 L 789.699515 630.296941 C 789.699515 630.296941 801.198051 650.398587 811.098335 666.301026 C 820.99862 682.197121 837.602684 686.897443 856.597784 686.897443 L 939.098038 686.897443 C 949.397885 686.897443 958.79713 681.397876 963.801181 672.396855 L 1010.099756 589.497386 C 1016.89867 577.400876 1016.600583 562.602156 1009.402106 550.702286 Z M 971.697308 489.198479 " transform="matrix(0.615907,0,0,0.615816,-107.162862,0.224445)"/><path style="fill-rule:nonzero;fill:#ffffff;fill-opacity:1;stroke-width:0.5;stroke-linecap:butt;stroke-linejoin:miter;stroke:#000000;stroke-opacity:1;stroke-miterlimit:10;" d="M 712.101836 483.29929 L 742.202251 430.09875 L 879.499722 430.09875 C 879.499722 430.09875 860.098717 394.602122 851.999638 384.002611 C 843.900558 373.4031 834.298361 373.4031 816.50195 373.4031 L 725.699664 373.4031 C 715.501293 373.4031 706.102048 378.902667 701.097996 387.802196 L 651.602918 475.300496 C 649.097721 479.702687 647.899032 484.498157 647.899032 489.198479 C 647.899032 493.898801 649.097721 498.700614 651.602918 503.102805 L 701.097996 590.601105 C 706.102048 599.500635 715.501293 605.000202 725.699664 605.000202 L 816.50195 605.000202 C 834.298361 605.000202 844.002035 605.000202 851.999638 594.40069 C 860.098717 583.902671 879.499722 548.298208 879.499722 548.298208 L 742.202251 548.298208 L 712.101836 495.097669 C 710.002544 491.399575 710.002544 486.902235 712.101836 483.29929 Z M 712.101836 483.29929 " transform="matrix(0.615907,0,0,0.615816,-107.162862,0.224445)"/></g></svg>