<?xml version="1.0" encoding="utf-8"?>
<!-- Generator: Adobe Illustrator 21.0.0, SVG Export Plug-In . SVG Version: 6.00 Build 0)  -->
<svg version="1.1" id="Layer_1" xmlns="http://www.w3.org/2000/svg" xmlns:xlink="http://www.w3.org/1999/xlink" x="0px" y="0px"
	 viewBox="0 0 1080 1080" style="enable-background:new 0 0 1080 1080;" xml:space="preserve">
<style type="text/css">
	.st0{fill:#2B748A;}
	.st1{fill:#00475C;}
	.st2{fill:#FFFFFF;stroke:#000000;stroke-width:0.5;stroke-miterlimit:10;}
</style>
<g id="_x32_2edd72932">
	<path class="st0" d="M853.5,361.3v251.3c-18.5,36.5-131.6,82-351.2,42.9C282.6,616.4,197,565.7,197,565.7V361.3
		c0-6.8,3.5-13.1,9.2-16.8l306.2-190.8c7.9-4.9,17.8-4.9,25.7,0l306.2,190.8C850,348.1,853.5,354.4,853.5,361.3z"/>
	<path class="st1" d="M1018.7,691.3c-11.9,36.5-85.7,53.3-162.1,61.3v12.7c0,6.9-3.6,13.2-9.3,16.8L541,969.4
		c-7.8,4.8-17.6,4.8-25.4,0L209.5,782.2c-4.5-2.8-7.7-7.3-8.8-12.4c-0.3-1.4-0.5-2.9-0.5-4.4v-59c0,0,155.3,53.1,284.5,55.3
		c-108.8-25.9-204.6-48.2-284.5-82.6c-36.8-15.8-70.3-34.2-100.1-56.7c0,0,43,15.8,100.1,33.3c48,14.8,106,30.9,156.5,39.8
		c0,0-24.9-11.6-40.4-16.3c-21.2-6.4-71.2-26.1-116.3-45.6c-19.5-8.4-38-16.8-52.9-23.9c-49.5-23.6-105.8-55.3-134.3-89.7
		s1.5-68.9,130.2-69.2c0,0-56.1,18.1-57.4,46c-1.1,24.3,27.5,60.1,114.4,98.9c12.2,5.4,25.4,10.9,39.9,16.4
		c118.1,45.1,318.8,85.9,478.7,92.5c53,2.2,100-0.5,137.9-7.2c88.4-15.7,127.7-53.6,79.8-104.1
		C936.4,593.5,1033.9,644.8,1018.7,691.3z"/>
	<path class="st2" d="M526.1,512.8l49.9,31.9c9.5,6.1,21.7,6.6,31.8,1.4l69-35.8c7.5-3.9,12.2-11.4,12.4-19.7l1.7-66.9
		c0.4-15.4-3.1-29-16-37.3c-12.8-8.4-29.1-18.1-29.1-18.1L643.1,476l-43.6,22.5c-3.5,1.8-7.6,1.7-10.9-0.4l-38.1-24.3l3-114.8
		c0.3-10.9-7.1-20.1-17.4-22.8c-0.7-0.2-1.2-0.3-1.9-0.4c-0.3-0.1-0.6-0.1-0.9-0.1c-0.4-0.1-0.8-0.1-1.2-0.1c-0.2,0-0.3,0-0.6-0.1
		c-0.2,0-0.5,0-0.7,0c-0.2,0-0.5,0-0.7,0c-0.2,0-0.3,0-0.6,0.1c-0.4,0-0.8,0.1-1.2,0c-0.3,0-0.6,0.1-0.9,0.1
		c-0.7,0.1-1.3,0.2-1.9,0.3c-10.3,2.1-18.3,11-18.6,21.8l-3,114.8l-39.3,22.3c-3.4,1.9-7.6,1.9-10.9-0.1L411.3,470l2.8-107.6
		c0,0-16.7,8.9-30,16.6c-13.3,7.7-17.5,21-17.9,36.4l-1.7,66.9c-0.2,8.3,4.1,16.1,11.4,20.3l67.1,39.3c9.8,5.8,21.9,5.8,31.9,0.3
		L526.1,512.8z"/>
	<path class="st2" d="M533.7,293.2l43.1,25.4l-2.5,111.3c0,0,29.5-15.1,38.3-21.4c8.9-6.4,9-14.1,9.4-28.6l1.7-73.6
		c0.2-8.3-4.2-16-11.4-20.2l-70.9-41.7c-3.6-2.1-7.5-3.2-11.3-3.3c-3.9-0.1-7.8,0.8-11.5,2.7l-72.7,38.5
		c-7.4,3.9-12.1,11.4-12.3,19.7l-1.7,73.6c-0.3,14.4-0.5,22.3,8,29c8.5,6.8,37.3,23.1,37.3,23.1l2.5-111.3L524,293
		C527.1,291.4,530.8,291.5,533.7,293.2z"/>
</g>
</svg>
