<svg xmlns="http://www.w3.org/2000/svg" width="384pt" height="384pt" viewBox="0 0 384 384" version="1.1" class="iconadda">
<g id="animate_0" transform="rotate(0,192,192) translate(78.72,78.72) scale(0.59,0.59)">
<g id="animate_1" style="transform-origin: 191.998px 107.641px;"><path style="stroke-width: 15; stroke-linecap: round; stroke-linejoin: round; stroke-opacity: 1; stroke-miterlimit: 10;" d="M 170.869792 7.5 L 416.6875 7.5 C 425.697917 7.5 433.005208 14.8125 433.005208 23.817708 L 433.005208 165.166667 M 433.005208 200.166667 L 433.005208 263.21875 C 433.005208 272.239583 425.692708 279.536458 416.6875 279.536458 L 95.3125 279.541667 C 86.302083 279.541667 78.994792 272.239583 78.994792 263.223958 L 78.989583 23.817708 C 78.989583 14.807292 86.302083 7.5 95.307292 7.5 L 135.869792 7.5 M 430.296875 71.197917 L 81.703125 71.197917 M 181.880208 39.348958 L 181.880208 39.348958 M 147.734375 39.348958 L 147.734375 39.348958 M 113.588542 39.348958 L 113.588542 39.348958 " transform="matrix(0.75,0,0,0.75,0,0)" id="animate_2" stroke="#58ad9f" data-original="#000000" fill="none" stroke-width="15px" class=""></path>
</g><g id="animate_3" style="transform-origin: 192px 237.553px;"><path style="stroke-width: 15; stroke-linecap: round; stroke-linejoin: round; stroke-opacity: 1; stroke-miterlimit: 10;" d="M 208.098958 204.057292 L 177.4375 173.395833 L 208.098958 142.734375 M 303.901042 204.057292 L 334.5625 173.395833 L 303.901042 142.734375 M 242.213542 211.578125 L 269.786458 135.208333 M 251.348958 498.265625 L 251.348958 448.4375 L 197.963542 448.4375 " transform="matrix(0.75,0,0,0.75,0,0)" id="animate_4" stroke="#58ad9f" data-original="#000000" fill="none" stroke-width="15px" class=""></path>
</g><g id="animate_5" style="transform-origin: 234.211px 320.695px;"><path style="stroke-width: 15; stroke-linecap: round; stroke-linejoin: round; stroke-opacity: 1; stroke-miterlimit: 10;" d="M 255.15625 503.583333 L 311.203125 503.583333 C 313.739583 503.583333 315.796875 501.526042 315.796875 498.989583 L 315.796875 356.192708 C 315.796875 353.65625 313.739583 351.604167 311.203125 351.604167 L 200.796875 351.604167 C 198.260417 351.604167 196.203125 353.65625 196.203125 356.192708 L 196.203125 444.630208 C 196.203125 447.067708 197.171875 449.401042 198.895833 451.125 L 248.661458 500.890625 C 250.380208 502.614583 252.71875 503.583333 255.15625 503.583333 Z M 428.359375 499.182292 L 428.359375 449.354167 L 374.973958 449.354167 " transform="matrix(0.75,0,0,0.75,0,0)" id="animate_6" stroke="#58ad9f" data-original="#000000" fill="none" stroke-width="15px" class=""></path>
</g><g id="animate_7" style="transform-origin: 192.658px 321.383px;"><path style="stroke-width: 15; stroke-linecap: round; stroke-linejoin: round; stroke-opacity: 1; stroke-miterlimit: 10;" d="M 492.802083 466.859375 L 492.802083 499.911458 C 492.802083 501.125 492.317708 502.296875 491.453125 503.15625 C 490.59375 504.015625 489.427083 504.5 488.208333 504.5 L 432.15625 504.5 L 432.161458 504.5 C 429.723958 504.5 427.390625 503.53125 425.671875 501.8125 L 375.911458 452.052083 C 374.182292 450.328125 373.208333 447.989583 373.208333 445.552083 L 373.208333 357.114583 C 373.208333 354.583333 375.270833 352.526042 377.807292 352.526042 L 488.208333 352.526042 L 488.208333 352.520833 C 489.427083 352.520833 490.59375 353.005208 491.453125 353.864583 C 492.317708 354.723958 492.802083 355.890625 492.802083 357.109375 L 492.802083 431.859375 M 74.338542 498.265625 L 74.338542 448.4375 L 20.953125 448.4375 " transform="matrix(0.75,0,0,0.75,0,0)" id="animate_8" stroke="#58ad9f" data-original="#000000" fill="none" stroke-width="15px" class=""></path>
</g><g id="animate_9" style="transform-origin: 169.58px 295.24px;"><path style="stroke-width: 15; stroke-linecap: round; stroke-linejoin: round; stroke-opacity: 1; stroke-miterlimit: 10;" d="M 138.791667 415.447917 L 138.791667 498.989583 C 138.791667 501.53125 136.729167 503.578125 134.192708 503.578125 L 78.140625 503.578125 C 75.708333 503.578125 73.369792 502.609375 71.651042 500.890625 L 21.890625 451.130208 C 20.166667 449.40625 19.197917 447.067708 19.197917 444.630208 L 19.197917 356.197917 C 19.197917 353.65625 21.25 351.598958 23.786458 351.598958 L 134.1875 351.598958 C 136.729167 351.598958 138.791667 353.661458 138.791667 356.197917 L 138.791667 380.447917 M 256 349.140625 L 256 283.729167 M 78.989583 348.510417 L 78.989583 327.713542 C 78.989583 321.005208 84.427083 315.567708 91.135417 315.567708 L 420.869792 315.567708 C 427.578125 315.567708 433.015625 321.005208 433.015625 327.713542 L 433.015625 349.140625 " transform="matrix(0.75,0,0,0.75,0,0)" id="animate_10" stroke="#58ad9f" data-original="#000000" fill="none" stroke-width="15px" class=""></path>
</g><g id="animate_11" style="transform-origin: 191.9px 300.238px;"><path style="stroke-width: 15; stroke-linecap: round; stroke-linejoin: round; stroke-opacity: 1; stroke-miterlimit: 10;" d="M 44.645833 418.651042 L 62.979167 400.317708 L 44.645833 381.984375 M 88.723958 400.317708 L 112.8125 400.317708 M 221.916667 418.651042 L 240.25 400.317708 L 221.916667 381.984375 M 265.994792 400.317708 L 290.078125 400.317708 M 398.927083 418.651042 L 417.260417 400.317708 L 398.927083 381.984375 M 443.005208 400.317708 L 467.088542 400.317708 " transform="matrix(0.75,0,0,0.75,0,0)" id="animate_12" stroke="#58ad9f" data-original="#000000" fill="none" stroke-width="15px" class=""></path>
</g></g>
</svg>